<svg version="1.2" baseProfile="tiny-ps" xmlns="http://www.w3.org/2000/svg" viewBox="0 0 1544 1543"
	width="1544" height="1543">
	<title>Zurich_Insurance_Group_logo-svg</title>
	<style>
		tspan { white-space:pre }
		.shp0 { fill: #2b73c2 }
	</style>
	<g id="Layer">
		<path id="Layer" class="shp0"
			d="M771.8 0.28C345.43 0.28 0.17 345.89 0.17 771.54C0.17 947.33 58.99 1109.52 158.09 1239.61L799.57 397.11L662.33 397.11C589.37 397.11 520.74 402 471.19 411.8C441.24 417.78 414.57 428.66 392.8 443.91C367.19 461.85 335.06 499.98 314.38 537.51C312.21 541.88 308.37 548.42 304.02 557.1L266.44 548.95L329.08 306.76L1132.86 306.76L493.55 1160.15C534.95 1156.34 551.82 1155.25 585.59 1155.25C611.17 1155.25 650.39 1156.89 703.76 1160.15L817.03 1166.69C857.87 1169.41 892.17 1170.5 918.3 1170.5C977.1 1170.5 1015.23 1166.13 1052.79 1154.17C1082.21 1144.9 1109.97 1131.85 1135.57 1114.43C1180.75 1083.41 1223.76 1033.88 1249.91 983.8C1252.64 978.9 1256.45 971.27 1261.35 960.95L1295.12 969.66C1284.23 1011.57 1278.25 1027.9 1261.35 1065.99C1227.05 1142.73 1188.39 1193.9 1135.02 1233.08C1080.57 1273.37 1019.58 1293.52 948.26 1294.6L937.34 1294.6C883.98 1294.6 843.14 1290.23 716.28 1270.64C587.22 1251.06 521.33 1243.96 456.52 1243.96C412.95 1243.96 372.67 1247.24 330.75 1254.31C275.18 1263.58 253.41 1269.56 203.3 1292.4C344.33 1446.44 546.91 1542.77 771.81 1542.77C1198.18 1542.77 1543.97 1197.72 1543.97 770.99C1543.44 345.91 1198.19 0.33 771.81 0.33" />
	</g>
</svg>